<svg width="24" height="24" viewBox="0 0 24 24" fill="none" xmlns="http://www.w3.org/2000/svg">
<path d="M15 22.7499H9C3.57 22.7499 1.25 20.4299 1.25 14.9999V8.99994C1.25 3.56994 3.57 1.24994 9 1.24994H15C20.43 1.24994 22.75 3.56994 22.75 8.99994V14.9999C22.75 20.4299 20.43 22.7499 15 22.7499ZM9 2.74994C4.39 2.74994 2.75 4.38994 2.75 8.99994V14.9999C2.75 19.6099 4.39 21.2499 9 21.2499H15C19.61 21.2499 21.25 19.6099 21.25 14.9999V8.99994C21.25 4.38994 19.61 2.74994 15 2.74994H9Z" fill="#121212"/>
<path d="M13.9501 22.7499C13.6101 22.7499 13.3101 22.5199 13.22 22.1799L8.2701 2.17993C8.1701 1.77993 8.42009 1.36995 8.82009 1.26995C9.22009 1.16995 9.63006 1.40995 9.73006 1.81995L14.6801 21.8199C14.7801 22.2199 14.5301 22.6299 14.1301 22.7299C14.0701 22.7399 14.0101 22.7499 13.9501 22.7499Z" fill="#121212"/>
<path d="M1.99985 15.7499C1.66985 15.7499 1.37988 15.5399 1.27988 15.2099C1.15988 14.8099 1.38983 14.3999 1.78983 14.2799L11.3199 11.4999C11.7199 11.3799 12.1299 11.6099 12.2499 12.0099C12.3699 12.4099 12.1398 12.8199 11.7398 12.9399L2.20987 15.7199C2.13987 15.7399 2.06985 15.7499 1.99985 15.7499Z" fill="#121212"/>
</svg>
