<svg width="24" height="24" viewBox="0 0 24 24" fill="none" xmlns="http://www.w3.org/2000/svg">
<path d="M17.6381 5.25025C17.9495 4.91658 18.455 4.91658 18.7664 5.25025C19.0779 5.58391 19.0779 6.12549 18.7664 6.45916L6.36188 19.7498C6.05046 20.0834 5.54498 20.0834 5.23356 19.7498C4.92215 19.4161 4.92215 18.8745 5.23356 18.5408L17.6381 5.25025Z" fill="#121212"/>
<path d="M5.23356 5.25025C5.52556 4.93739 5.9881 4.918 6.30131 5.19184L6.36188 5.25025L18.7664 18.5408L18.8209 18.6057C19.0765 18.9413 19.0584 19.4369 18.7664 19.7498C18.4744 20.0626 18.0119 20.082 17.6987 19.8082L17.6381 19.7498L5.23356 6.45916L5.17905 6.39426C4.92347 6.05867 4.94156 5.5631 5.23356 5.25025Z" fill="#121212"/>
</svg>
