<svg width="24" height="24" viewBox="0 0 24 24" fill="none" xmlns="http://www.w3.org/2000/svg">
<path d="M12 22.7599C10.91 22.7599 9.83 22.4399 8.98 21.8099L4.68 18.5999C3.54 17.7499 2.65 15.9699 2.65 14.5599V7.11994C2.65 5.57994 3.78 3.93994 5.23 3.39994L10.22 1.52994C11.21 1.15994 12.77 1.15994 13.76 1.52994L18.75 3.39994C20.2 3.93994 21.33 5.57994 21.33 7.11994V14.5499C21.33 15.9699 20.44 17.7399 19.3 18.5899L15 21.7999C14.17 22.4399 13.09 22.7599 12 22.7599ZM10.75 2.93994L5.76 4.80994C4.91 5.12994 4.16 6.20994 4.16 7.12994V14.5599C4.16 15.5099 4.83 16.8399 5.58 17.3999L9.88 20.6099C11.03 21.4699 12.97 21.4699 14.13 20.6099L18.43 17.3999C19.19 16.8299 19.85 15.5099 19.85 14.5599V7.11994C19.85 6.20994 19.1 5.12994 18.25 4.79994L13.26 2.92994C12.58 2.68994 11.42 2.68994 10.75 2.93994Z" fill="#121212"/>
<path d="M10.66 14.2299C10.47 14.2299 10.28 14.1599 10.13 14.0099L8.52 12.3999C8.23 12.1099 8.23 11.6299 8.52 11.3399C8.81 11.0499 9.29 11.0499 9.58 11.3399L10.66 12.4199L14.43 8.64994C14.72 8.35994 15.2 8.35994 15.49 8.64994C15.78 8.93994 15.78 9.41994 15.49 9.70994L11.19 14.0099C11.04 14.1599 10.85 14.2299 10.66 14.2299Z" fill="#121212"/>
</svg>
