<svg width="24" height="24" viewBox="0 0 24 24" fill="none" xmlns="http://www.w3.org/2000/svg">
<path d="M19.4697 19.4697C19.7597 19.1797 20.2403 19.1797 20.5303 19.4697L22.5303 21.4697C22.8203 21.7597 22.8203 22.2403 22.5303 22.5303C22.3803 22.6803 22.19 22.75 22 22.75C21.81 22.75 21.6197 22.6803 21.4697 22.5303L19.4697 20.5303C19.1797 20.2403 19.1797 19.7597 19.4697 19.4697Z" fill="#121212"/>
<path fill-rule="evenodd" clip-rule="evenodd" d="M11.5 1.25C17.15 1.25 21.75 5.85 21.75 11.5C21.75 17.15 17.15 21.75 11.5 21.75C5.85 21.75 1.25 17.15 1.25 11.5C1.25 5.85 5.85 1.25 11.5 1.25ZM11.5 2.75C6.67 2.75 2.75 6.68 2.75 11.5C2.75 16.32 6.67 20.25 11.5 20.25C16.33 20.25 20.25 16.32 20.25 11.5C20.25 6.68 16.33 2.75 11.5 2.75Z" fill="#121212"/>
</svg>
