<svg width="24" height="24" viewBox="0 0 24 24" fill="none" xmlns="http://www.w3.org/2000/svg">
<path fill-rule="evenodd" clip-rule="evenodd" d="M18.7059 5.4541C19.1697 6.42197 19.4305 7.50615 19.4305 8.65039V10.75C19.4305 11.29 19.6798 12.1804 19.9598 12.6504L21.2303 14.7695C21.7003 15.5495 21.7795 16.4801 21.4695 17.3301C21.1595 18.18 20.4798 18.8301 19.6199 19.1201C18.4026 19.5325 17.1554 19.8373 15.8924 20.041C15.3722 21.6961 13.8245 22.9004 11.9998 22.9004C10.9299 22.9003 9.87986 22.4601 9.11992 21.7002C8.6527 21.233 8.30664 20.6559 8.10917 20.0322C7.02026 19.8537 5.94356 19.5996 4.88749 19.2705L6.09062 18.0674C10.3629 19.2271 14.9535 19.1091 19.16 17.71C19.5899 17.57 19.9201 17.2501 20.0701 16.8301C20.2301 16.4101 20.18 15.9496 19.95 15.5596L18.6805 13.4404C18.2605 12.7504 17.9402 11.5795 17.9402 10.7695V8.66992C17.938 7.94107 17.8034 7.2434 17.5613 6.59863L18.7059 5.4541ZM9.86113 20.252C9.95435 20.3907 10.0614 20.5206 10.1805 20.6396C10.6604 21.1196 11.3199 21.4003 11.9998 21.4004C12.8888 21.4004 13.6761 20.9453 14.1404 20.2568C13.4359 20.3178 12.7286 20.3496 12.0203 20.3496C11.299 20.3496 10.5784 20.316 9.86113 20.252Z" fill="#292D32"/>
<path d="M12.0203 1.24023C14.3622 1.24033 16.4502 2.32991 17.8084 4.02832L16.7361 5.10156C15.6544 3.67327 13.9439 2.7501 12.0203 2.75C8.76031 2.75 6.11015 5.40016 6.11015 8.66016V10.7598C6.11015 11.5697 5.78986 12.7397 5.36992 13.4297L4.10038 15.5596C3.84042 15.9895 3.78055 16.4497 3.93046 16.8496C4.01946 17.0869 4.17615 17.2877 4.38847 17.4463L3.32792 18.5068C2.96178 18.1905 2.68335 17.7953 2.52031 17.3496C2.22041 16.5297 2.32039 15.5895 2.81035 14.7695L4.07988 12.6504C4.35988 12.1804 4.61015 11.3 4.61015 10.75V8.65039C4.61015 4.56039 7.93031 1.24023 12.0203 1.24023Z" fill="#292D32"/>
<path d="M3.81882 22C3.61069 22 3.40256 21.9233 3.23825 21.759C2.92058 21.4414 2.92058 20.9157 3.23825 20.5981L20.6006 3.23822C20.9183 2.92059 21.4441 2.92059 21.7617 3.23822C22.0794 3.55584 22.0794 4.08157 21.7617 4.39919L4.39939 21.759C4.23508 21.9233 4.02695 22 3.81882 22Z" fill="#292D32"/>
</svg>
