<svg width="24" height="24" viewBox="0 0 24 24" fill="none" xmlns="http://www.w3.org/2000/svg">
<path d="M20.25 4.97974C20.2499 3.7606 19.2523 2.76001 18 2.76001H6C4.74773 2.76001 3.75013 3.7606 3.75 4.97974V15.8899C3.75 17.1091 4.74764 18.1096 6 18.1096H6.75C7.73201 18.1096 8.69323 18.4939 9.39746 19.1965L11.1064 20.886C11.5943 21.3676 12.3949 21.3676 12.8828 20.886L14.5928 19.1965C15.296 18.4949 16.247 18.1096 17.2402 18.1096H18C19.2507 18.1096 20.25 17.1008 20.25 15.8899V4.97974ZM14 6.25024C15.7962 6.25024 17.25 7.70775 17.25 9.51001V9.51196C17.2442 11.3354 16.3952 12.7632 15.4102 13.7717C14.434 14.7711 13.2806 15.4078 12.5254 15.6692L12.5176 15.6711C12.341 15.73 12.154 15.7473 12.0039 15.7473C11.8515 15.7473 11.6688 15.73 11.4961 15.676C11.4889 15.6738 11.4817 15.6716 11.4746 15.6692C10.7199 15.408 9.56357 14.7713 8.58594 13.7717C7.59958 12.7632 6.75 11.3349 6.75 9.51001C6.75 7.70775 8.20383 6.25024 10 6.25024C10.7576 6.25024 11.4492 6.50805 12 6.9397C12.5508 6.50805 13.2424 6.25024 14 6.25024ZM8.25 9.51001C8.25 10.8348 8.85984 11.9065 9.6582 12.7229C10.4571 13.5397 11.4002 14.0508 11.9482 14.2444H11.9502C11.9644 14.2462 11.9832 14.2473 12.0039 14.2473C12.0234 14.2473 12.0396 14.2458 12.0508 14.2444C12.598 14.0513 13.5387 13.541 14.3369 12.7239C15.1339 11.9079 15.7451 10.8355 15.75 9.51001C15.75 8.53227 14.9638 7.75024 14 7.75024C13.4265 7.75024 12.9238 8.02026 12.5986 8.45142C12.4569 8.63935 12.2354 8.75024 12 8.75024C11.7646 8.75024 11.5431 8.63935 11.4014 8.45142C11.0762 8.02026 10.5735 7.75024 10 7.75024C9.03617 7.75024 8.25 8.53227 8.25 9.51001ZM21.75 15.8899C21.75 17.939 20.0693 19.6096 18 19.6096H17.2402C16.6351 19.6096 16.0668 19.8437 15.6504 20.26L15.6475 20.2639L15.6465 20.2629L13.9375 21.9534H13.9365C12.8644 23.0117 11.1248 23.0117 10.0527 21.9534L8.34277 20.2629L8.33984 20.26C7.92435 19.8445 7.34656 19.6096 6.75 19.6096H6C3.93236 19.6096 2.25 17.9506 2.25 15.8899V4.97974C2.25013 2.91909 3.93244 1.26001 6 1.26001H18C20.0676 1.26001 21.7499 2.91909 21.75 4.97974V15.8899Z" fill="#121212"/>
</svg>
