<svg width="24" height="24" viewBox="0 0 24 24" fill="none" xmlns="http://www.w3.org/2000/svg">
<path d="M13.6978 7.03455C13.9895 6.72826 14.4696 6.72125 14.7701 7.01861C15.0705 7.31608 15.0774 7.80564 14.7858 8.11212L5.79156 17.5651C5.64876 17.7151 5.45256 17.8001 5.24758 17.8001C5.04234 17.8 4.84557 17.7146 4.70278 17.5643L1.2135 13.8378L1.16248 13.7782C0.924328 13.4705 0.948715 13.0229 1.23078 12.7443C1.5128 12.4658 1.95237 12.455 2.24632 12.7074L2.30311 12.7619L5.24758 15.9144L13.6978 7.03455Z" fill="#121212"/>
<path d="M21.6978 7.03453C21.9895 6.72824 22.4696 6.72123 22.7701 7.01859C23.0705 7.31607 23.0774 7.80563 22.7858 8.1121L13.7916 17.5651C13.6488 17.7151 13.4526 17.8001 13.2476 17.8001C13.0423 17.8 12.8456 17.7146 12.7028 17.5643L11.2135 15.8378L11.1625 15.7782C10.9243 15.4705 10.9487 15.0229 11.2308 14.7443C11.5128 14.4658 11.9524 14.4549 12.2463 14.7073L12.3031 14.7619L13.2476 15.9144L21.6978 7.03453Z" fill="#121212"/>
</svg>
