<svg width="24" height="24" viewBox="0 0 24 24" fill="none" xmlns="http://www.w3.org/2000/svg">
<path d="M12.02 20.5299C9.69 20.5299 7.36 20.1599 5.15 19.4199C4.31 19.1299 3.67 18.5399 3.39 17.7699C3.1 16.9999 3.2 16.1499 3.66 15.3899L4.81 13.4799C5.05 13.0799 5.27 12.2799 5.27 11.8099V8.91993C5.27 5.19993 8.3 2.16993 12.02 2.16993C15.74 2.16993 18.77 5.19993 18.77 8.91993V11.8099C18.77 12.2699 18.99 13.0799 19.23 13.4899L20.37 15.3899C20.8 16.1099 20.88 16.9799 20.59 17.7699C20.3 18.5599 19.67 19.1599 18.88 19.4199C16.68 20.1599 14.35 20.5299 12.02 20.5299ZM12.02 3.66993C9.13 3.66993 6.77 6.01993 6.77 8.91993V11.8099C6.77 12.5399 6.47 13.6199 6.1 14.2499L4.95 16.1599C4.73 16.5299 4.67 16.9199 4.8 17.2499C4.92 17.5899 5.22 17.8499 5.63 17.9899C9.81 19.3899 14.24 19.3899 18.42 17.9899C18.78 17.8699 19.06 17.5999 19.19 17.2399C19.32 16.8799 19.29 16.4899 19.09 16.1599L17.94 14.2499C17.56 13.5999 17.27 12.5299 17.27 11.7999V8.91993C17.27 6.01993 14.92 3.66993 12.02 3.66993Z" fill="#292D32"/>
<path d="M13.88 3.93993C13.81 3.93993 13.74 3.92993 13.67 3.90993C13.38 3.82993 13.1 3.76993 12.83 3.72993C11.98 3.61993 11.16 3.67993 10.39 3.90993C10.11 3.99993 9.81 3.90993 9.62 3.69993C9.43 3.48993 9.37 3.18993 9.48 2.91993C9.89 1.86993 10.89 1.17993 12.03 1.17993C13.17 1.17993 14.17 1.85993 14.58 2.91993C14.68 3.18993 14.63 3.48993 14.44 3.69993C14.29 3.85993 14.08 3.93993 13.88 3.93993Z" fill="#292D32"/>
<path d="M12.02 22.8099C11.03 22.8099 10.07 22.4099 9.37 21.7099C8.67 21.0099 8.27 20.0499 8.27 19.0599H9.77C9.77 19.6499 10.01 20.2299 10.43 20.6499C10.85 21.0699 11.43 21.3099 12.02 21.3099C13.26 21.3099 14.27 20.2999 14.27 19.0599H15.77C15.77 21.1299 14.09 22.8099 12.02 22.8099Z" fill="#292D32"/>
</svg>
