<svg width="24" height="24" viewBox="0 0 24 24" fill="none" xmlns="http://www.w3.org/2000/svg">
<path d="M9.47 15.2799C9.28 15.2799 9.09 15.2099 8.94 15.0599C8.12 14.2399 7.67 13.1499 7.67 11.9999C7.67 9.60994 9.61 7.66994 12 7.66994C13.15 7.66994 14.24 8.11994 15.06 8.93994C15.2 9.07994 15.28 9.26994 15.28 9.46994C15.28 9.66994 15.2 9.85994 15.06 9.99994L10 15.0599C9.85 15.2099 9.66 15.2799 9.47 15.2799ZM12 9.16994C10.44 9.16994 9.17 10.4399 9.17 11.9999C9.17 12.4999 9.3 12.9799 9.54 13.3999L13.4 9.53994C12.98 9.29994 12.5 9.16994 12 9.16994Z" fill="#121212"/>
<path d="M5.6 18.5099C5.43 18.5099 5.25 18.4499 5.11 18.3299C4.04 17.4199 3.08 16.2999 2.26 14.9999C1.2 13.3499 1.2 10.6599 2.26 8.99994C4.7 5.17994 8.25 2.97994 12 2.97994C14.2 2.97994 16.37 3.73994 18.27 5.16994C18.6 5.41994 18.67 5.88994 18.42 6.21994C18.17 6.54994 17.7 6.61994 17.37 6.36994C15.73 5.12994 13.87 4.47994 12 4.47994C8.77 4.47994 5.68 6.41994 3.52 9.80994C2.77 10.9799 2.77 13.0199 3.52 14.1899C4.27 15.3599 5.13 16.3699 6.08 17.1899C6.39 17.4599 6.43 17.9299 6.16 18.2499C6.02 18.4199 5.81 18.5099 5.6 18.5099Z" fill="#121212"/>
<path d="M12 21.0199C10.67 21.0199 9.37 20.7499 8.12 20.2199C7.74 20.0599 7.56 19.6199 7.72 19.2399C7.88 18.8599 8.32 18.6799 8.7 18.8399C9.76 19.2899 10.87 19.5199 11.99 19.5199C15.22 19.5199 18.31 17.5799 20.47 14.1899C21.22 13.0199 21.22 10.9799 20.47 9.80994C20.16 9.31994 19.82 8.84994 19.46 8.40994C19.2 8.08994 19.25 7.61994 19.57 7.34994C19.89 7.08994 20.36 7.12994 20.63 7.45994C21.02 7.93994 21.4 8.45994 21.74 8.99994C22.8 10.6499 22.8 13.3399 21.74 14.9999C19.3 18.8199 15.75 21.0199 12 21.0199Z" fill="#121212"/>
<path d="M12.69 16.2699C12.34 16.2699 12.02 16.0199 11.95 15.6599C11.87 15.2499 12.14 14.8599 12.55 14.7899C13.65 14.5899 14.57 13.6699 14.77 12.5699C14.85 12.1599 15.24 11.8999 15.65 11.9699C16.06 12.0499 16.33 12.4399 16.25 12.8499C15.93 14.5799 14.55 15.9499 12.83 16.2699C12.78 16.2599 12.74 16.2699 12.69 16.2699Z" fill="#121212"/>
<path d="M2 22.7499C1.81 22.7499 1.62 22.6799 1.47 22.5299C1.18 22.2399 1.18 21.7599 1.47 21.4699L8.94 13.9999C9.23 13.7099 9.71 13.7099 10 13.9999C10.29 14.2899 10.29 14.7699 10 15.0599L2.53 22.5299C2.38 22.6799 2.19 22.7499 2 22.7499Z" fill="#121212"/>
<path d="M14.53 10.2199C14.34 10.2199 14.15 10.1499 14 9.99994C13.71 9.70994 13.71 9.22994 14 8.93994L21.47 1.46994C21.76 1.17994 22.24 1.17994 22.53 1.46994C22.82 1.75994 22.82 2.23994 22.53 2.52994L15.06 9.99994C14.91 10.1499 14.72 10.2199 14.53 10.2199Z" fill="#121212"/>
</svg>
