<svg width="24" height="24" viewBox="0 0 24 24" fill="none" xmlns="http://www.w3.org/2000/svg">
<path d="M20.3299 8.58008C20.3299 7.72018 19.8741 6.9345 19.1297 6.49707V6.4961L13.1981 3.07129L13.0555 2.9961C12.3337 2.6443 11.4856 2.67052 10.7948 3.06934L4.85922 6.4961C4.11616 6.9329 3.66 7.72899 3.66 8.58008V15.4199C3.66 16.2835 4.11871 17.0757 4.85532 17.501L10.7918 20.9287C11.5425 21.3576 12.4584 21.356 13.1952 20.9307L19.1346 17.501C19.8752 17.0637 20.3299 16.2694 20.3299 15.4199V8.58008ZM15.2498 16.6602C15.2498 15.4103 13.9462 14.1504 11.9998 14.1504C10.0536 14.1505 8.74985 15.4104 8.74985 16.6602C8.74975 17.0743 8.414 17.4102 7.99985 17.4102C7.58577 17.4101 7.24995 17.0742 7.24985 16.6602C7.24985 14.31 9.52622 12.6505 11.9998 12.6504C14.4735 12.6504 16.7498 14.31 16.7498 16.6602C16.7497 17.0743 16.414 17.4102 15.9998 17.4102C15.5858 17.4101 15.2499 17.0742 15.2498 16.6602ZM13.5799 8.66992C13.5799 7.79736 12.8725 7.08985 11.9998 7.08985C11.1273 7.08993 10.4198 7.79741 10.4198 8.66992C10.4198 9.54249 11.1273 10.2499 11.9998 10.25C12.8724 10.25 13.5799 9.54254 13.5799 8.66992ZM15.0799 8.66992C15.0799 10.371 13.7009 11.75 11.9998 11.75C10.2989 11.7499 8.91977 10.3709 8.91977 8.66992C8.9198 6.96895 10.2989 5.58993 11.9998 5.58985C13.7008 5.58985 15.0799 6.9689 15.0799 8.66992ZM21.8299 15.4199C21.8299 16.8087 21.0862 18.0936 19.8895 18.7969L19.8846 18.7998L13.9452 22.2295C12.7419 22.9241 11.2571 22.9225 10.0477 22.2314L10.0448 22.2295L4.10532 18.7998C2.90192 18.1051 2.16 16.8163 2.16 15.4199V8.58008C2.16 7.1913 2.90369 5.90637 4.10043 5.20313L4.10532 5.2002L10.0448 1.77051C11.1729 1.1192 12.5486 1.08014 13.7127 1.64746L13.9422 1.76856L13.9452 1.77051L19.8846 5.2002L19.8905 5.20313H19.8895C21.0851 5.90569 21.8299 7.17998 21.8299 8.58008V15.4199Z" fill="#121212"/>
</svg>
