<svg width="24" height="24" viewBox="0 0 24 24" fill="none" xmlns="http://www.w3.org/2000/svg">
<path d="M3.17383 20.4961V15.9961C3.17383 15.5405 3.54339 15.1709 3.99902 15.1709H8.06738C8.52284 15.1711 8.8916 15.5406 8.8916 15.9961C8.89155 16.4516 8.52281 16.8211 8.06738 16.8213H5.6543C5.94108 17.1524 6.28687 17.5207 6.69043 17.8867C7.99173 19.067 9.80251 20.1748 12 20.1748C16.5124 20.1748 20.1748 16.5124 20.1748 12C20.1748 11.5444 20.5444 11.1748 21 11.1748C21.4556 11.1748 21.8252 11.5444 21.8252 12C21.8252 17.4236 17.4236 21.8252 12 21.8252C9.22951 21.8252 7.03923 20.4311 5.58203 19.1094C5.30523 18.8583 5.05266 18.607 4.82422 18.3652V20.4961C4.82417 20.9517 4.45462 21.3213 3.99902 21.3213C3.54342 21.3213 3.17388 20.9517 3.17383 20.4961ZM2.1748 12C2.1748 6.57852 6.53822 2.1748 12 2.1748C15.2462 2.1748 17.6767 3.53137 19.2793 4.86816C19.6126 5.14624 19.9108 5.4253 20.1748 5.69141V3.50391C20.1749 3.04831 20.5444 2.67871 21 2.67871C21.4556 2.67871 21.8251 3.04831 21.8252 3.50391V8.00391C21.8252 8.45954 21.4556 8.8291 21 8.8291H17.0039C16.5483 8.82905 16.1787 8.45951 16.1787 8.00391C16.1788 7.54835 16.5483 7.17876 17.0039 7.17871H19.3105C19.0134 6.8546 18.6522 6.49407 18.2227 6.13574C16.826 4.97063 14.7565 3.8252 12 3.8252C7.45379 3.8252 3.8252 7.48548 3.8252 12C3.8252 12.4556 3.45563 12.8252 3 12.8252C2.54437 12.8252 2.1748 12.4556 2.1748 12Z" fill="#121212"/>
</svg>
